<svg width="40" height="40" viewBox="0 0 40 40" fill="none" xmlns="http://www.w3.org/2000/svg">
<circle cx="20" cy="20" r="20" fill="#FDE456"/>
<g clip-path="url(#clip0)">
<path d="M24.999 10.0042L22.4055 10C19.4917 10 17.6087 11.9319 17.6087 14.922V17.1913H15.0011C14.7757 17.1913 14.5933 17.374 14.5933 17.5994V20.8874C14.5933 21.1127 14.7759 21.2952 15.0011 21.2952H17.6087V29.592C17.6087 29.8173 17.7912 29.9998 18.0165 29.9998H21.4188C21.6442 29.9998 21.8266 29.8171 21.8266 29.592V21.2952H24.8756C25.1009 21.2952 25.2834 21.1127 25.2834 20.8874L25.2847 17.5994C25.2847 17.4912 25.2416 17.3875 25.1652 17.311C25.0889 17.2344 24.9848 17.1913 24.8766 17.1913H21.8266V15.2676C21.8266 14.3429 22.047 13.8735 23.2515 13.8735L24.9986 13.8729C25.2237 13.8729 25.4062 13.6902 25.4062 13.4651V10.412C25.4062 10.1871 25.2239 10.0046 24.999 10.0042Z" fill="white"/>
</g>
<defs>
<clipPath id="clip0">
<rect width="20" height="19.9998" fill="white" transform="translate(10 10)"/>
</clipPath>
</defs>
</svg>
