<svg width="40" height="40" viewBox="0 0 40 40" fill="none" xmlns="http://www.w3.org/2000/svg">
<circle cx="20" cy="20" r="20" fill="#FDE456"/>
<g clip-path="url(#clip0)">
<path d="M29.8349 12.6286C29.639 12.39 29.3142 12.3015 29.0253 12.4077L10.6794 19.0375C10.3128 19.1707 10.0556 19.4937 10.0078 19.8805C9.96052 20.2655 10.1302 20.639 10.4485 20.854L13.0709 22.6442C13.3249 22.8177 13.6516 22.8363 13.9237 22.6927L19.6122 19.693L15.1787 23.0034C14.9706 23.1589 14.8462 23.4068 14.8462 23.6665V26.7329C14.8462 27.0492 15.0197 27.339 15.299 27.4895C15.5787 27.6399 15.9165 27.625 16.1821 27.4498L18.1745 26.1282L20.1337 27.4641C20.3054 27.5818 20.5098 27.6437 20.7161 27.6437C20.7859 27.6437 20.8559 27.6366 20.9249 27.6222C21.2 27.5648 21.4434 27.3949 21.5928 27.1559L29.8931 13.4691C30.0547 13.2056 30.0315 12.8683 29.8349 12.6286V12.6286Z" fill="white"/>
</g>
<defs>
<clipPath id="clip0">
<rect width="20" height="19.9609" fill="white" transform="translate(10 10)"/>
</clipPath>
</defs>
</svg>
