<svg width="18" height="64" viewBox="0 0 18 64" fill="none" xmlns="http://www.w3.org/2000/svg">
<path d="M11.2161 0.649115C10.7857 -0.216372 9.38685 -0.216372 8.95645 0.649115C5.29804 7.35664 1.96242 14.1724 0.0256192 21.529C-0.189581 22.6109 0.994023 23.6927 1.96243 23.0436C4.11443 21.529 5.94364 19.6898 7.55764 17.5261C7.12724 32.6721 5.08284 48.3591 8.63365 63.2887C8.84885 64.3706 10.6779 64.1542 10.5703 63.0722C8.63365 47.6016 10.1401 32.2392 10.3551 16.7686C12.1843 18.3914 14.0135 20.0142 15.7351 21.637C16.4883 22.3943 18.1025 21.9616 17.9949 20.6633C17.1339 13.5232 14.7667 6.81571 11.2161 0.649115ZM10.0324 13.5232C9.38685 12.5496 7.55764 12.7659 7.55764 14.2805C7.55764 14.3887 7.55764 14.4969 7.55764 14.4969C6.26644 15.7951 5.08283 17.0934 3.68403 18.3916C5.40564 13.415 7.55764 8.76306 10.0323 4.11106C12.1843 8.33031 13.7983 12.6577 14.6591 17.3097C13.4755 16.2279 12.1843 15.146 11.0005 13.956C10.7857 13.5232 10.3551 13.415 10.0324 13.5232Z" fill="white"/>
</svg>
